<svg width="96" height="96" xmlns="http://www.w3.org/2000/svg" xmlns:xlink="http://www.w3.org/1999/xlink" xml:space="preserve" overflow="hidden"><g transform="translate(-639 -264)"><path d="M683 307C691.837 307 699 299.837 699 291 699 282.163 691.837 275 683 275 674.163 275 667 282.163 667 291 667 299.837 674.163 307 683 307ZM683 277C690.732 277 697 283.268 697 291 697 298.732 690.732 305 683 305 675.268 305 669 298.732 669 291 669.008 283.271 675.271 277.008 683 277Z"/><path d="M703.105 317.694C704.166 317.391 705.253 317.186 706.352 317.083 703.087 315.344 699.641 313.969 696.075 312.983 691.838 311.681 687.432 311.013 683 311 678.577 311.075 674.184 311.739 669.937 312.976 664.395 314.6 659.167 317.15 654.476 320.518 652.326 322.204 651.049 324.768 651 327.5L651 343 653 343 653 327.5C653.044 325.391 654.031 323.413 655.688 322.109 660.177 318.895 665.177 316.461 670.476 314.909 674.547 313.719 678.759 313.077 683 313 687.242 313.012 691.459 313.653 695.513 314.9 698.113 315.632 700.651 316.566 703.105 317.694Z"/><path d="M708 320C699.716 320 693 326.716 693 335 693 343.284 699.716 350 708 350 716.284 350 723 343.284 723 335 722.991 326.72 716.28 320.009 708 320ZM708 348C700.82 348 695 342.18 695 335 695 327.82 700.82 322 708 322 715.18 322 721 327.82 721 335 720.992 342.176 715.176 347.992 708 348Z"/><path d="M709 328 707 328 707 334 701 334 701 336 707 336 707 342 709 342 709 336 715 336 715 334 709 334 709 328Z"/></g></svg>