<svg width="96" height="96" xmlns="http://www.w3.org/2000/svg" xmlns:xlink="http://www.w3.org/1999/xlink" xml:space="preserve" overflow="hidden"><g transform="translate(-1320 -390)"><path d="M1384.9 435.913C1384.87 435.133 1385.16 434.375 1385.7 433.813 1386.32 433.371 1387 433.006 1387.71 432.726 1393.06 430.341 1399.17 430.377 1404.49 432.826 1405.07 433.048 1405.6 433.349 1406.09 433.72 1406.66 434.311 1406.98 435.094 1407 435.913L1407 445.957C1407.69 446.474 1408.36 447.027 1409 447.613L1409 435.913C1409.01 434.557 1408.47 433.255 1407.51 432.305 1406.85 431.76 1406.12 431.321 1405.33 431.005 1399.51 428.281 1392.79 428.235 1386.93 430.88 1386.04 431.228 1385.21 431.691 1384.44 432.256 1383.43 433.197 1382.86 434.529 1382.9 435.913L1382.9 437.118C1383.58 437.223 1384.24 437.334 1384.9 437.453Z"/><path d="M1395.95 427.911C1399.82 427.911 1402.95 424.777 1402.95 420.911 1402.95 417.045 1399.82 413.911 1395.95 413.911 1392.09 413.911 1388.95 417.045 1388.95 420.911 1388.93 424.754 1392.03 427.888 1395.87 427.911 1395.9 427.911 1395.93 427.911 1395.95 427.911ZM1395.95 415.911C1398.71 415.915 1400.95 418.151 1400.95 420.911 1400.95 423.672 1398.72 425.911 1395.95 425.911 1393.19 425.911 1390.95 423.672 1390.95 420.911 1390.95 418.15 1393.19 415.911 1395.95 415.911Z"/><path d="M1329 435.913C1329.01 435.479 1329.1 435.049 1329.27 434.65 1329.5 434.096 1329.91 433.635 1330.43 433.34 1330.84 433.107 1331.27 432.901 1331.71 432.725 1337.06 430.34 1343.17 430.377 1348.49 432.825 1349.07 433.047 1349.61 433.348 1350.09 433.719 1350.66 434.311 1350.98 435.094 1351 435.913L1351 437.47C1351.66 437.351 1352.33 437.239 1353 437.133L1353 435.913C1352.98 434.564 1352.45 433.274 1351.51 432.306 1350.86 431.755 1350.12 431.316 1349.33 431.006 1343.51 428.282 1336.78 428.236 1330.93 430.881 1330.07 431.221 1329.25 431.669 1328.5 432.213L1328.34 432.361C1327.45 433.323 1326.96 434.599 1327 435.913L1327 447.613C1327.64 447.027 1328.31 446.475 1329 445.958Z"/><path d="M1368 423.909C1371.87 423.909 1375 420.775 1375 416.909 1375 413.043 1371.87 409.909 1368 409.909 1364.13 409.909 1361 413.043 1361 416.909 1360.98 420.752 1364.07 423.886 1367.92 423.909 1367.94 423.909 1367.97 423.909 1368 423.909ZM1368 411.909C1370.76 411.912 1373 414.149 1373 416.909 1373 419.67 1370.76 421.909 1368 421.909 1365.24 421.909 1363 419.67 1363 416.909 1363 414.148 1365.24 411.909 1368 411.909Z"/><path d="M1340 427.911C1343.87 427.911 1347 424.777 1347 420.911 1347 417.045 1343.87 413.911 1340 413.911 1336.13 413.911 1333 417.045 1333 420.911 1332.98 424.754 1336.07 427.888 1339.92 427.911 1339.94 427.911 1339.97 427.911 1340 427.911ZM1340 415.911C1342.76 415.915 1345 418.151 1345 420.911 1345 423.672 1342.76 425.911 1340 425.911 1337.24 425.911 1335 423.672 1335 420.911 1335 418.15 1337.24 415.911 1340 415.911Z"/><path d="M1356.9 431.912C1356.87 431.132 1357.16 430.374 1357.7 429.812 1358.32 429.369 1359 429.004 1359.71 428.725 1365.06 426.339 1371.17 426.376 1376.49 428.825 1377.07 429.046 1377.61 429.347 1378.09 429.718 1378.66 430.31 1378.98 431.093 1379 431.912L1379 436.6C1379.67 436.675 1380.34 436.756 1381 436.844L1381 431.912C1380.98 430.562 1380.45 429.269 1379.51 428.3 1378.86 427.749 1378.12 427.309 1377.33 427 1371.51 424.276 1364.79 424.23 1358.93 426.875 1358.04 427.224 1357.21 427.686 1356.44 428.251 1355.42 429.193 1354.86 430.527 1354.9 431.912L1354.9 436.857C1355.56 436.768 1356.23 436.686 1356.9 436.61Z"/><path d="M1368 438C1343.33 438 1324 446.565 1324 457.5 1324 468.435 1343.33 477 1368 477 1392.67 477 1412 468.435 1412 457.5 1412 446.565 1392.67 438 1368 438ZM1368 475C1345.23 475 1326 466.986 1326 457.5 1326 448.014 1345.23 440 1368 440 1390.77 440 1410 448.014 1410 457.5 1410 466.986 1390.77 475 1368 475Z"/></g></svg>