<svg width="96" height="96" xmlns="http://www.w3.org/2000/svg" xmlns:xlink="http://www.w3.org/1999/xlink" xml:space="preserve" overflow="hidden"><g transform="translate(-432 -312)"><path d="M505 328.978 495 328.978 495 337.846 480 323.6 438.567 362.958 445.056 369.446 450 364.764 450 396.976 475 396.986 475 371.994 485 371.994 485 396.994 510 397 510 364.722 514.969 369.422 521.433 362.959 505 347.346ZM497 330.978 503 330.978 503 345.446 497 339.746ZM508 395 487 394.991 487 369.991 473 369.991 473 394.985 452 394.977 452 362.87 480 336.354 508 362.831ZM445.093 366.656 441.433 363 480 326.356 518.567 363 514.93 366.632 480 333.6Z"/><path d="M456 381.978 468 381.978 468 369.978 456 369.978ZM458 371.978 466 371.978 466 379.978 458 379.978Z"/><path d="M504 369.978 492 369.978 492 381.978 504 381.978ZM502 379.978 494 379.978 494 371.978 502 371.978Z"/></g></svg>