<svg width="96" height="96" xmlns="http://www.w3.org/2000/svg" xmlns:xlink="http://www.w3.org/1999/xlink" xml:space="preserve" overflow="hidden"><g transform="translate(-432 -312)"><path d="M454.084 404 466.246 375 479 375 479 394 481 394 481 375 493.754 375 505.916 404 508.085 404 495.923 375 499 375 499 372 504 372 504 334 490 334 490 330 481 330 481 316 479 316 479 330 470 330 470 334 456 334 456 372 461 372 461 375 464.077 375 451.915 404ZM472 332 488 332 488 337 472 337ZM461 370 458 370 458 336 470 336 470 339 490 339 490 336 502 336 502 370 499 370 499 367 461 367ZM463 373 463 369 497 369 497 373Z"/></g></svg>