<svg width="96" height="96" xmlns="http://www.w3.org/2000/svg" xmlns:xlink="http://www.w3.org/1999/xlink" xml:space="preserve" overflow="hidden"><g transform="translate(-170 -65)"><path d="M187.125 123.912C187.295 123.912 187.467 123.916 187.639 123.924 193.761 124.21 198.497 129.397 198.225 135.52L198.223 135.565 198.223 136.361 198.488 136.823 201.511 142.09C201.516 142.098 201.512 142.105 201.503 142.105L198.217 142.105 198.217 144.105 198.217 146.752 198.217 146.806C198.219 147.846 197.705 148.819 196.845 149.405 196.286 149.772 195.63 149.961 194.962 149.946L190.945 149.946 190.945 155.173 181.182 155.173 181.182 145.173 180.409 144.573C177.803 142.302 176.229 139.072 176.048 135.62L176.048 135.57 176.046 135.52C176.031 135.185 176.031 134.846 176.046 134.512 176.303 128.581 181.189 123.906 187.125 123.912ZM187.125 121.912C180.124 121.918 174.365 127.427 174.048 134.421 174.03 134.818 174.03 135.214 174.048 135.611 174.031 139.731 175.928 143.626 179.182 146.153L179.182 157.173 192.945 157.173 192.945 151.946 195.079 151.946C197.918 151.946 200.219 149.644 200.218 146.805L200.217 146.723 200.217 144.105 202.134 144.105C203.267 143.974 204.268 142.668 203.223 141.055L200.223 135.828 200.223 135.611C200.552 128.382 194.959 122.255 187.73 121.926 187.528 121.917 187.125 121.912 187.125 121.912Z"/><path d="M204.316 126.356C204.733 126.356 205.071 126.695 205.07 127.113 205.07 127.163 205.065 127.213 205.055 127.262 204.979 127.55 204.755 127.774 204.467 127.85 204.059 127.933 203.66 127.67 203.577 127.261 203.494 126.853 203.757 126.454 204.166 126.371 204.215 126.361 204.265 126.356 204.316 126.356M204.316 124.356C202.794 124.356 201.561 125.589 201.561 127.111 201.561 127.169 201.563 127.228 201.567 127.287 201.703 128.647 202.779 129.724 204.14 129.86 205.658 129.957 206.968 128.805 207.065 127.286 207.162 125.768 206.009 124.459 204.491 124.362 204.433 124.358 204.374 124.356 204.316 124.356Z"/><path d="M212.978 118.915C214.523 118.917 215.773 120.171 215.771 121.716 215.771 121.774 215.769 121.833 215.766 121.891 215.626 123.269 214.536 124.359 213.158 124.499 211.617 124.597 210.289 123.428 210.191 121.888 210.092 120.348 211.261 119.02 212.801 118.921 212.86 118.917 212.919 118.915 212.978 118.915M212.931 116.915C210.284 116.941 208.159 119.109 208.185 121.756 208.185 121.803 208.186 121.85 208.188 121.897 208.352 124.369 210.32 126.337 212.791 126.501 215.437 126.603 217.665 124.541 217.768 121.896 217.87 119.25 215.808 117.021 213.163 116.919 213.101 116.917 213.039 116.915 212.978 116.915Z"/><path d="M226.443 71C230.399 71.0008 233.794 73.8203 234.52 77.7093 234.52 77.714 234.524 77.7178 234.529 77.7176 234.531 77.7176 234.533 77.7166 234.535 77.715 236.012 76.5951 237.814 75.9865 239.668 75.9809 244.247 75.9934 247.956 79.7018 247.969 84.2809 247.974 84.9204 247.892 85.5576 247.725 86.1749 247.722 86.1835 247.727 86.1886 247.736 86.1864 248.354 86.0246 248.99 85.9422 249.629 85.9412L249.629 85.9412C249.659 85.9412 249.775 85.9412 249.803 85.9412 254.388 85.9914 258.064 89.7485 258.013 94.3328 257.964 98.8795 254.265 102.54 249.718 102.543L249.629 102.543C248.49 102.512 247.367 102.26 246.324 101.801 246.32 101.799 246.314 101.8 246.312 101.805 246.311 101.806 246.31 101.808 246.311 101.81L246.311 102.543C246.298 107.121 242.59 110.83 238.011 110.844L237.99 110.844C235.373 110.844 232.916 109.585 231.387 107.46 231.379 107.449 231.372 107.451 231.37 107.465 230.967 111.732 227.388 114.993 223.103 115L223.09 115C218.501 114.999 214.78 111.282 214.774 106.693 214.781 106.395 214.808 106.098 214.854 105.803 214.855 105.79 214.848 105.786 214.838 105.794 213.602 106.753 212.119 107.34 210.561 107.487 210.298 107.512 210.036 107.525 209.777 107.524 205.531 107.518 201.983 104.288 201.58 100.061 201.58 100.056 201.576 100.053 201.571 100.052 201.529 100.052 201.322 100.049 201.249 100.046 196.668 99.8605 193.105 95.9963 193.291 91.4153 193.47 86.9997 197.077 83.4984 201.496 83.451 202.135 83.452 202.771 83.5345 203.39 83.6963 203.398 83.6985 203.403 83.6934 203.401 83.6849 203.239 83.0665 203.157 82.43 203.156 81.7908 203.169 77.2126 206.877 73.5044 211.455 73.4908 214.226 73.4947 216.81 74.8917 218.331 77.2086 218.337 77.2186 218.344 77.2169 218.347 77.206 219.329 73.6301 222.53 71.1137 226.237 71.0036 226.288 71.0018 226.426 71 226.443 71M226.443 69 226.443 69 226.38 69C222.917 69.0474 219.7 70.8 217.783 73.6842 215.981 72.2628 213.753 71.49 211.458 71.4903 205.909 71.5164 201.367 75.9144 201.162 81.4603 195.479 81.6932 191.06 86.4895 191.293 92.1733 191.492 97.0426 195.077 101.106 199.883 101.91 201.058 106.408 205.129 109.541 209.778 109.524 210.1 109.524 210.428 109.509 210.75 109.479 211.528 109.405 212.295 109.243 213.036 108.995 214.318 114.552 219.861 118.017 225.417 116.736 228.469 116.032 231.037 113.98 232.397 111.158 234.056 112.256 236.001 112.842 237.99 112.844 242.956 112.825 247.212 109.287 248.136 104.407 248.612 104.484 249.093 104.529 249.575 104.542L249.718 104.543C255.407 104.541 260.018 99.9279 260.016 94.2387 260.014 88.6477 255.553 84.0788 249.963 83.9439 249.756 78.4022 245.218 74.0084 239.673 73.9809 238.292 73.9866 236.926 74.2615 235.651 74.7902 233.949 71.2514 230.37 69.0008 226.443 69Z"/></g></svg>