<svg width="96" height="96" xmlns="http://www.w3.org/2000/svg" xmlns:xlink="http://www.w3.org/1999/xlink" xml:space="preserve" overflow="hidden"><g transform="translate(-426 -557)"><path d="M459.266 603.707 473.973 618.414 488.68 603.707 489.68 602.707 488.266 601.293 487.266 602.293 474.99 614.569C474.986 614.573 474.98 614.573 474.976 614.569 474.974 614.567 474.973 614.565 474.973 614.562L474.973 575 472.973 575 472.973 614.562C472.973 614.568 472.968 614.572 472.963 614.572 472.96 614.572 472.958 614.571 472.956 614.569L460.68 602.293 459.68 601.293 458.266 602.707Z"/><path d="M501 633 447 633 447 613 445 613 445 635 503 635 503 613 501 613 501 633Z"/></g></svg>