<svg width="96" height="96" xmlns="http://www.w3.org/2000/svg" xmlns:xlink="http://www.w3.org/1999/xlink" xml:space="preserve" overflow="hidden"><g transform="translate(-563 -405)"><path d="M594.707 447.77 593.293 446.355 580.615 459.034C580.611 459.038 580.605 459.038 580.601 459.034 580.599 459.032 580.598 459.03 580.598 459.028 577.257 442.236 588.16 425.915 604.952 422.574 618.961 419.786 633.062 426.932 639.098 439.878L640.91 439.031C633.23 422.507 613.609 415.337 597.085 423.017 583.824 429.18 576.203 443.337 578.358 457.8 578.36 457.805 578.357 457.81 578.353 457.812 578.349 457.813 578.344 457.811 578.342 457.808L566.891 446.355 565.477 447.77 580.092 462.385Z"/><path d="M627.293 460.264 628.707 461.678 641.667 448.718C641.671 448.714 641.677 448.714 641.681 448.718 641.683 448.72 641.684 448.722 641.684 448.724 644.118 465.598 632.412 481.25 615.539 483.684 614.036 483.901 612.519 484.007 611 484 599.523 484.011 588.982 477.673 583.609 467.531L581.843 468.469C590.379 484.572 610.352 490.706 626.455 482.171 637.254 476.446 644.005 465.222 644 453 644 452.163 643.961 451.325 643.9 450.49 643.9 450.484 643.904 450.48 643.91 450.48 643.912 450.48 643.914 450.481 643.916 450.482L655.111 461.682 656.525 460.268 641.908 445.648Z"/></g></svg>