<svg width="96" height="96" xmlns="http://www.w3.org/2000/svg" xmlns:xlink="http://www.w3.org/1999/xlink" xml:space="preserve" overflow="hidden"><g transform="translate(-177 -368)"><path d="M257.6 405.911C256.805 401.015 254.109 396.631 250.1 393.711 245.944 390.799 240.776 389.715 235.8 390.711 231.875 384.689 225.181 381.049 217.993 381.026 216.345 381.023 214.703 381.216 213.1 381.6 204.581 383.815 198.206 390.9 196.9 399.605 191.265 399.802 186.016 402.519 182.6 407.005 178.612 412.617 177.889 419.92 180.7 426.205 183.567 432.388 189.597 436.497 196.4 436.905L202.02 436.905 200.02 434.905 196.454 434.905C190.421 434.522 185.078 430.878 182.521 425.4 180.019 419.769 180.658 413.238 184.205 408.2 187.268 404.217 191.944 401.803 196.965 401.613L198.626 401.553 198.872 399.909C200.038 391.999 205.825 385.555 213.564 383.548 215.013 383.198 216.498 383.021 217.989 383.021 224.507 383.024 230.579 386.329 234.121 391.8L234.861 392.933 236.188 392.667C240.618 391.781 245.217 392.741 248.922 395.326 252.497 397.945 254.902 401.861 255.622 406.233L255.857 407.672 257.299 407.888C264.755 408.944 269.944 415.845 268.888 423.302 267.957 429.872 262.432 434.818 255.799 435.019L249.88 435.019 247.88 437.019 255.8 437.019C264.432 436.794 271.247 429.613 271.022 420.981 270.823 413.357 265.151 406.988 257.6 405.911Z"/><path d="M224 408 224 447.562C224 447.568 223.995 447.572 223.99 447.572 223.987 447.572 223.985 447.571 223.983 447.569L210.707 434.293 209.293 435.707 225 451.414 240.707 435.707 239.293 434.293 226.017 447.569C226.013 447.573 226.007 447.573 226.003 447.569 226.001 447.567 226 447.565 226 447.562L226 408Z"/></g></svg>