<svg width="96" height="96" xmlns="http://www.w3.org/2000/svg" xmlns:xlink="http://www.w3.org/1999/xlink" xml:space="preserve" overflow="hidden"><g transform="translate(-659 -360)"><path d="M709.067 407.183C709.067 406.079 708.172 405.185 707.068 405.185 705.964 405.185 705.069 406.08 705.069 407.184 705.07 408.288 705.965 409.183 707.069 409.183 707.599 409.182 708.107 408.972 708.482 408.597 708.858 408.223 709.068 407.714 709.067 407.183Z"/><path d="M734.444 388.189C731.845 388.182 729.307 388.974 727.173 390.457L720.944 393.925 724.411 387.697C724.947 386.88 725.423 386.025 725.835 385.139 727.1 382.065 727.072 378.611 725.758 375.558 723.077 369.182 715.736 366.187 709.361 368.868 706.288 370.16 703.857 372.625 702.606 375.715 701.342 378.789 701.37 382.242 702.684 385.295 703.974 388.357 706.426 390.782 709.503 392.037 710.064 392.271 710.645 392.454 711.239 392.585L703.851 399.974 701.791 404.56 674.017 420.224 666.466 432.808 694.901 420.062 682.154 448.494 694.741 440.943 710.214 413.268 714.798 411.21 722.221 403.788C723.892 410.529 730.711 414.638 737.451 412.967 744.192 411.296 748.301 404.477 746.63 397.737 745.241 392.134 740.216 388.197 734.444 388.188ZM671.455 428.38 675.46 421.706 700.43 407.624 696.129 417.32ZM693.255 439.502 686.582 443.506 698.873 416.09 698.859 416.096 703.437 405.777 705.524 401.128 715.587 391.067 713.437 390.888C712.35 390.827 711.28 390.591 710.267 390.189 707.676 389.133 705.611 387.091 704.525 384.513 703.422 381.951 703.397 379.053 704.457 376.473 706.634 371.084 712.767 368.48 718.156 370.657 720.757 371.708 722.831 373.754 723.917 376.34 725.019 378.892 725.047 381.78 723.996 384.354 723.615 385.159 723.179 385.937 722.689 386.681L715.78 399.089 715.791 399.082 708.647 411.973ZM734.444 411.299C728.952 411.291 724.373 407.096 723.885 401.626L723.711 399.469 713.644 409.536 711.833 410.349 719.098 397.242 728.19 392.181 728.277 392.126C730.084 390.86 732.238 390.183 734.444 390.189 740.274 390.152 745.029 394.849 745.065 400.678 745.101 406.508 740.404 411.263 734.575 411.298 734.531 411.299 734.488 411.299 734.445 411.298Z"/><path d="M734.444 393.966C730.701 393.98 727.678 397.025 727.692 400.768 727.705 404.491 730.719 407.506 734.442 407.521L734.444 407.521C738.187 407.535 741.233 404.512 741.247 400.769 741.262 397.026 738.239 393.98 734.496 393.966 734.479 393.966 734.461 393.966 734.444 393.966ZM734.444 405.521 734.442 405.521C731.802 405.52 729.663 403.38 729.663 400.74 729.664 398.1 731.804 395.96 734.444 395.961 737.084 395.961 739.224 398.101 739.223 400.741 739.223 403.381 737.083 405.52 734.444 405.521Z"/><path d="M720.45 383.099C721.107 381.429 721.091 379.569 720.405 377.911 719.721 376.247 718.381 374.938 716.701 374.294 715.031 373.638 713.172 373.654 711.514 374.339 709.849 375.022 708.54 376.363 707.896 378.043 707.239 379.713 707.255 381.572 707.941 383.23 708.625 384.895 709.965 386.204 711.646 386.848 712.44 387.156 713.285 387.314 714.137 387.315 716.904 387.33 719.404 385.661 720.45 383.099ZM712.367 384.982C711.197 384.534 710.264 383.622 709.788 382.462 709.301 381.28 709.291 379.955 709.761 378.766 710.481 376.967 712.234 375.796 714.172 375.82 714.79 375.82 715.403 375.936 715.979 376.16 717.149 376.609 718.082 377.52 718.558 378.68 719.045 379.859 719.056 381.18 718.589 382.367 717.575 384.789 714.808 385.953 712.367 384.982Z"/></g></svg>