<svg width="96" height="96" xmlns="http://www.w3.org/2000/svg" xmlns:xlink="http://www.w3.org/1999/xlink" xml:space="preserve" overflow="hidden"><g transform="translate(-288 -449)"><path d="M298.937 524.994C298.972 525.006 299.008 525.015 299.045 525.021L361 525.021 374.6 495.813C375.571 493.786 374.715 491.356 372.689 490.385 372.283 490.191 371.847 490.065 371.4 490.013L367 490.013 367 481.013C366.993 478.807 365.206 477.02 363 477.013L333.28 477.013C333.099 477.013 332.921 476.959 332.77 476.859L322 469.706C321.342 469.281 320.583 469.039 319.8 469.006L301 469.006C298.794 469.013 297.007 470.8 297 473.006L297 523C297.003 524.078 297.859 524.96 298.937 524.994ZM371.293 492.011C372.421 492.211 373.173 493.288 372.973 494.416 372.942 494.589 372.889 494.759 372.815 494.919L372.802 494.944 372.791 494.969 359.731 523.015 359.722 523.021 301.1 523.021C301.095 523.021 301.09 523.016 301.09 523.011 301.09 523.01 301.091 523.008 301.091 523.007L313.43 493.019C313.718 492.411 314.327 492.02 315 492.011ZM299 473.006C299 471.901 299.895 471.006 301 471.006L319.8 471.006C320.213 471.04 320.61 471.18 320.953 471.411L331.663 478.52C332.142 478.838 332.705 479.008 333.28 479.008L363 479.008C364.105 479.008 365 479.903 365 481.008L365 490 316 490C315.947 490 315.9 490.009 315.844 490.011L315 490.011C313.534 490.018 312.207 490.877 311.6 492.211L299.019 522.785C299.017 522.79 299.012 522.793 299.006 522.791 299.003 522.79 299.001 522.788 299 522.785Z"/></g></svg>