<svg width="96" height="96" xmlns="http://www.w3.org/2000/svg" xmlns:xlink="http://www.w3.org/1999/xlink" xml:space="preserve" overflow="hidden"><g transform="translate(-484 -168)"><path d="M532 178C511.007 177.994 493.984 195.007 493.978 216 493.972 236.993 510.985 254.016 531.978 254.022 552.971 254.028 569.994 237.015 570 216.022 570 216.018 570 216.014 570 216.01 570.011 195.029 553.011 178.011 532.03 178 532.02 178 532.01 178 532 178ZM532 252.021C512.112 252.027 495.984 235.909 495.978 216.021 495.972 196.133 512.09 180.005 531.978 179.999 551.866 179.993 567.994 196.111 568 215.999 568 216.004 568 216.008 568 216.013 567.98 235.889 551.876 251.998 532 252.024Z"/><path d="M532.5 198.514 530.5 198.514 530.5 215 514 215 514 217 530.5 217 530.5 233.514 532.5 233.514 532.5 217 549 217 549 215 532.5 215 532.5 198.514Z"/></g></svg>