<svg width="96" height="96" xmlns="http://www.w3.org/2000/svg" xmlns:xlink="http://www.w3.org/1999/xlink" xml:space="preserve" overflow="hidden"><g transform="translate(-273 -216)"><path d="M359.58 228.186C359.271 227.965 358.864 227.939 358.529 228.117L282.7 268.561C282.213 268.821 282.028 269.426 282.287 269.914 282.406 270.137 282.605 270.307 282.844 270.389L306.026 278.412 306.445 278.55 313.045 299.303C313.151 299.636 313.423 299.889 313.762 299.972 313.84 299.99 313.92 300 314 300 314.265 300 314.52 299.895 314.707 299.707L328.445 285.97 348.674 292.945C348.953 293.043 349.262 293.011 349.515 292.857 349.768 292.705 349.941 292.449 349.988 292.157L359.988 229.157C360.047 228.782 359.889 228.406 359.58 228.186ZM285.68 269.237 351.713 234.02C351.717 234.017 351.724 234.018 351.727 234.022 351.73 234.026 351.729 234.033 351.725 234.036L306.884 276.578 285.684 269.256C285.678 269.254 285.675 269.248 285.677 269.242 285.678 269.24 285.679 269.238 285.681 269.237ZM308.35 277.944 352.374 236.177C352.378 236.173 352.384 236.173 352.388 236.176 352.393 236.18 352.393 236.187 352.389 236.191L317.979 280.967C317.902 281.064 317.846 281.176 317.814 281.296L313.921 295.396C313.921 295.401 313.917 295.406 313.911 295.406 313.905 295.406 313.901 295.401 313.901 295.396ZM315.929 295.629 319.452 282.869 326.341 285.244 315.941 295.639C315.936 295.64 315.93 295.637 315.929 295.631 315.929 295.63 315.929 295.63 315.929 295.629ZM348.188 290.662 320.411 281.084 357.326 233.049C357.328 233.044 357.333 233.042 357.338 233.044 357.343 233.046 357.345 233.051 357.343 233.056L348.2 290.654C348.199 290.659 348.194 290.663 348.188 290.662 348.188 290.662 348.188 290.662 348.188 290.662Z"/></g></svg>