<svg width="96" height="96" xmlns="http://www.w3.org/2000/svg" xmlns:xlink="http://www.w3.org/1999/xlink" xml:space="preserve" overflow="hidden"><g transform="translate(-656 -732)"><path d="M740 763.009 714 763.009 714 756.009C713.993 753.803 712.206 752.016 710 752.009L668 752.009C665.794 752.016 664.007 753.803 664 756.009L664 783.017C664.007 785.223 665.794 787.01 668 787.017L674 787.017 674 797.017 684 787.017 694 787.017 694 794.017C694.007 796.223 695.794 798.01 698 798.017L724 798.017 734 808.017 734 798.017 740 798.017C742.206 798.01 743.993 796.223 744 794.017L744 767.01C743.994 764.803 742.207 763.016 740 763.009ZM694 767.009 694 785.018 683.174 785.018 682.588 785.604 676 792.192 676 785.018 668 785.018C666.895 785.018 666 784.123 666 783.018L666 756.01C666 754.905 666.895 754.01 668 754.01L710 754.01C711.105 754.01 712 754.905 712 756.01L712 763.01 698 763.01C695.794 763.017 694.007 764.804 694 767.01ZM742 794.017C742 795.122 741.105 796.017 740 796.017L732 796.017 732 803.191 725.418 796.6 724.832 796.014 698 796.014C696.895 796.014 696 795.119 696 794.014L696 767.01C696 765.905 696.895 765.01 698 765.01L740 765.01C741.105 765.01 742 765.905 742 767.01Z"/></g></svg>