<svg width="96" height="96" xmlns="http://www.w3.org/2000/svg" xmlns:xlink="http://www.w3.org/1999/xlink" xml:space="preserve" overflow="hidden"><g transform="translate(-344 -492)"><path d="M392 508C399.732 508 406 514.268 406 522 406 529.732 399.732 536 392 536 384.268 536 378 529.732 378 522 378.008 514.271 384.271 508.008 392 508M392 506C383.163 506 376 513.163 376 522 376 530.837 383.163 538 392 538 400.837 538 408 530.837 408 522 408 513.163 400.837 506 392 506Z"/><path d="M424 574 422 574 422 558.5C421.952 556.376 420.952 554.386 419.275 553.081 414.889 549.716 409.868 547.273 404.513 545.9 400.459 544.652 396.242 544.012 392 544 387.759 544.074 383.548 544.713 379.476 545.9 374.177 547.452 369.178 549.886 364.688 553.1 363.028 554.406 362.042 556.388 362 558.5L362 574 360 574 360 558.5C360.05 555.769 361.326 553.205 363.476 551.519 368.168 548.151 373.395 545.601 378.937 543.977 383.184 542.74 387.577 542.075 392 542 396.432 542.011 400.838 542.678 405.075 543.979 410.685 545.424 415.943 547.991 420.533 551.525 422.678 553.211 423.952 555.772 424 558.5Z"/></g></svg>