<svg width="96" height="96" xmlns="http://www.w3.org/2000/svg" xmlns:xlink="http://www.w3.org/1999/xlink" xml:space="preserve" overflow="hidden"><g transform="translate(-344 -103)"><path d="M394 172.2 394 177.5 390 177.5 390 172.2C387.7 171.4 386 169.2 386 166.5 386 163.2 388.7 160.5 392 160.5 395.3 160.5 398 163.2 398 166.5 398 169.1 396.3 171.3 394 172.2ZM377 135.5C377 127.2 383.7 120.5 392 120.5 400.3 120.5 407 127.2 407 135.5L407 146.6 392 145.5 377 146.6 377 135.5ZM413 147 413 135.5C413 123.9 403.6 114.5 392 114.5 380.4 114.5 371 123.9 371 135.5L371 147 364 147.5 364 185.5 392 187.5 420 185.5 420 147.5 413 147Z"/></g></svg>