<svg width="96" height="96" xmlns="http://www.w3.org/2000/svg" xmlns:xlink="http://www.w3.org/1999/xlink" xml:space="preserve" overflow="hidden"><g transform="translate(-215 -118)"><path d="M279 148C279 156.837 271.837 164 263 164 254.163 164 247 156.837 247 148 247 139.163 254.163 132 263 132 271.837 132 279 139.163 279 148Z"/><path d="M295 200 295 184C295 181.6 293.8 179.2 291.8 177.6 287.4 174 281.8 171.6 276.2 170 272.2 168.8 267.8 168 263 168 258.6 168 254.2 168.8 249.8 170 244.2 171.6 238.6 174.4 234.2 177.6 232.2 179.2 231 181.6 231 184L231 200 295 200Z"/></g></svg>