<svg width="96" height="96" xmlns="http://www.w3.org/2000/svg" xmlns:xlink="http://www.w3.org/1999/xlink" xml:space="preserve" overflow="hidden"><g transform="translate(-1272 -764)"><path d="M1283.94 844.122 1310.26 855.022 1310.26 768.1 1283.94 779ZM1285.94 780.339 1308.26 771.094 1308.26 852.032 1285.94 842.786Z"/><path d="M1327 805 1329 805 1329 780 1314 780 1314 782 1327 782 1327 805Z"/><path d="M1327 840 1314 840 1314 842 1329 842 1329 817 1327 817 1327 840Z"/><path d="M1340.71 795.293 1339.29 796.707 1352.57 809.983C1352.57 809.987 1352.57 809.993 1352.57 809.997 1352.57 809.999 1352.56 810 1352.56 810L1319 810 1319 812 1352.56 812C1352.57 812 1352.57 812.005 1352.57 812.01 1352.57 812.013 1352.57 812.015 1352.57 812.017L1339.29 825.293 1340.71 826.707 1356.41 811Z"/></g></svg>