<svg width="96" height="96" xmlns="http://www.w3.org/2000/svg" xmlns:xlink="http://www.w3.org/1999/xlink" xml:space="preserve" overflow="hidden"><g transform="translate(-272 -324)"><path d="M341.025 368.015 341.025 356.031C341.025 344.419 331.611 335.005 319.999 335.005 308.387 335.005 298.973 344.419 298.973 356.031L298.973 368.014 291.997 368.514 291.997 406.523 319.997 408.523 347.997 406.523 347.997 368.512ZM300.973 356.031C300.973 345.523 309.491 337.005 319.999 337.005 330.507 337.005 339.025 345.523 339.025 356.031L339.025 367.881 336 367.679 336 356.006C336 347.169 328.837 340.006 320 340.006 311.163 340.006 304 347.169 304 356.006L304 367.679 300.975 367.879ZM334 367.539 320 366.512 306 367.539 306 356.006C306 348.274 312.268 342.006 320 342.006 327.732 342.006 334 348.274 334 356.006ZM346 404.661 320 406.519 294 404.661 294 370.375 299.134 370.008 305.147 369.608 320 368.517 334.867 369.608 340.858 370.008 346 370.375Z"/><path d="M320 379.516C316.117 379.532 312.983 382.692 312.999 386.575 313.01 389.273 314.565 391.727 317 392.89L317 398.521 323 398.521 323 392.866C325.418 391.667 326.962 389.216 327 386.518 326.996 382.653 323.865 379.521 320 379.516ZM321.635 391.288 321 391.537 321 396.521 319 396.521 319 391.508 318.328 391.275C315.711 390.362 314.329 387.5 315.242 384.883 316.155 382.266 319.017 380.884 321.634 381.797 323.643 382.498 324.992 384.39 325 386.518 324.956 388.646 323.624 390.534 321.634 391.288Z"/></g></svg>