<svg width="96" height="96" xmlns="http://www.w3.org/2000/svg" xmlns:xlink="http://www.w3.org/1999/xlink" xml:space="preserve" overflow="hidden"><g transform="translate(-944 -761)"><path d="M973.5 797.711C972.235 798.263 971.656 799.737 972.209 801.002 972.761 802.268 974.235 802.846 975.5 802.294 976.765 801.741 977.344 800.268 976.791 799.002 976.539 798.424 976.078 797.963 975.5 797.711L975.5 791.008 971.5 791.008 971.5 787.288C972.765 786.736 973.344 785.262 972.791 783.997 972.239 782.731 970.765 782.153 969.5 782.705 968.235 783.258 967.656 784.731 968.209 785.997 968.461 786.575 968.922 787.036 969.5 787.288L969.5 791.007 964.318 791C964.126 791.535 963.983 792.07 963.833 792.633 963.801 792.755 963.767 792.878 963.733 793L973.5 793.009Z"/><path d="M1025 812.014 1018.1 800.014 1018.1 799.514C1018.69 782.918 1005.71 768.988 989.115 768.401 989.11 768.4 989.105 768.4 989.1 768.4 988.728 768.387 988.358 768.381 987.989 768.38 971.83 768.366 958.567 781.161 958 797.31L958 799.51C957.961 808.974 962.321 817.919 969.8 823.718L969.8 849.025 1001.4 849.025 1001.4 837.025 1006.3 837.025C1012.81 837.012 1018.09 831.737 1018.1 825.225L1018.1 819.025 1022.5 819.025C1025.1 818.716 1027.4 815.715 1025 812.014ZM1023.83 815.914C1023.54 816.494 1023 816.903 1022.36 817.014L1016.1 817.014 1016.1 825.214C1016.09 830.623 1011.71 835.006 1006.3 835.014L999.4 835.014 999.4 847.014 971.8 847.014 971.8 822.736 971.024 822.136C964.023 816.726 959.946 808.359 960 799.511L960 797.347C960.512 782.272 972.908 770.331 987.991 770.382 988.336 770.382 988.682 770.388 989.03 770.401 1004.52 770.961 1016.63 783.951 1016.1 799.439L1016.1 800.545 1016.37 801.008 1023.27 813.008 1023.3 813.054 1023.33 813.099C1023.98 813.884 1024.17 814.951 1023.83 815.913Z"/><path d="M1002.5 782.5C1002.21 782.503 1001.92 782.557 1001.65 782.66L998.5 779.828 998.5 775.4C997.84 775.137 997.168 774.873 996.5 774.647L996.5 780.679 1000.2 784.012C999.654 785.28 1000.24 786.751 1001.51 787.297 1002.78 787.842 1004.25 787.256 1004.79 785.988 1005.34 784.72 1004.75 783.249 1003.48 782.703 1003.17 782.57 1002.84 782.5 1002.5 782.5Z"/><path d="M991.5 802.5C991.174 802.5 990.851 802.565 990.55 802.69L983.5 795.616 983.5 784.006 989.5 784.006 989.5 788.706C988.235 789.258 987.656 790.732 988.209 791.997 988.761 793.263 990.235 793.841 991.5 793.289 992.765 792.736 993.344 791.263 992.791 789.997 992.539 789.419 992.078 788.958 991.5 788.706L991.5 782.005 983.5 782.005 983.5 779.287C984.765 778.735 985.344 777.261 984.791 775.996 984.239 774.73 982.765 774.152 981.5 774.704 980.235 775.257 979.656 776.73 980.209 777.996 980.461 778.574 980.922 779.035 981.5 779.287L981.5 796.407 984.8 799.816 979.5 805.116 979.5 810.01 973.469 810.01 969.613 805.481C970.215 804.196 969.662 802.666 968.376 802.063 967.091 801.461 965.561 802.015 964.959 803.3 964.356 804.585 964.91 806.115 966.195 806.718 966.787 806.995 967.461 807.036 968.082 806.834L972.532 812.011 979.5 812.011 979.5 813.711C978.235 814.263 977.656 815.737 978.209 817.002 978.761 818.268 980.235 818.846 981.5 818.294 982.765 817.741 983.344 816.268 982.791 815.002 982.539 814.424 982.078 813.963 981.5 813.711L981.5 805.905 986.2 801.205 989.149 804.175C988.697 805.476 989.385 806.897 990.686 807.35 991.987 807.802 993.408 807.114 993.86 805.813 994.313 804.512 993.625 803.091 992.324 802.638 992.059 802.546 991.78 802.5 991.5 802.5Z"/></g></svg>